Coordinates
version=1
nRows=12
nColumns=24
inDegrees=yes

Units are S.I. units (second, meters, Newtons, ...)
Angles are in degrees.

endheader
time	pelvis_tilt	pelvis_list	pelvis_rotation	pelvis_tx	pelvis_ty	pelvis_tz	hip_flexion_r	hip_adduction_r	hip_rotation_r	knee_angle_r	ankle_angle_r	subtalar_angle_r	mtp_angle_r	hip_flexion_l	hip_adduction_l	hip_rotation_l	knee_angle_l	ankle_angle_l	subtalar_angle_l	mtp_angle_l	lumbar_extension	lumbar_bending	lumbar_rotation
      1.96000000	    -10.34095723	      0.68702057	      3.71433487	     -0.22817996	      1.23280460	     -0.82917239	     38.02111690	      2.31701635	     -0.14602799	    -44.91793401	      7.15903679	     -3.94904987	      9.08704675	     13.89569665	     11.04717019	     13.26635240	    -20.76252106	      8.66645574	     -0.02081746	      8.71893226	     -3.85104048	     -2.18152928	     -1.47685283
      1.96500000	    -10.40142208	      0.62576104	      3.71234700	     -0.22300449	      1.23249446	     -0.82881502	     38.09970038	      2.38818832	      0.10237528	    -42.70191532	      7.39975669	     -4.19355843	      8.76652104	     13.59463503	     10.94088063	     13.22808913	    -20.85276103	      9.03091313	      0.12979448	      8.76954958	     -3.84573169	     -2.16256239	     -1.52283935
      1.97000000	    -10.48082146	      0.56467524	      3.70860592	     -0.21778707	      1.23214808	     -0.82842218	     38.12738853	      2.45743595	      0.35708691	    -40.37006389	      7.61087239	     -4.45759103	      8.41259336	     13.33070100	     10.82977769	     13.14517678	    -20.97595541	      9.42017962	      0.35285991	      8.81589159	     -3.80861697	     -2.15596806	     -1.50725428
      1.97500000	    -10.55640580	      0.49178016	      3.73990344	     -0.21252609	      1.23180069	     -0.82811330	     38.06837700	      2.48827330	      0.53363310	    -37.91147647	      7.76315668	     -4.61488350	      8.16740940	     13.05171513	     10.72376209	     13.12062770	    -21.08370892	      9.75783864	      0.47823607	      8.86660114	     -3.77195293	     -2.12283301	     -1.56090966
      1.98000000	    -10.62141672	      0.42453357	      3.77051392	     -0.20723086	      1.23143060	     -0.82776512	     37.91782443	      2.51572215	      0.71969139	    -35.33277985	      7.85881338	     -4.79281543	      7.92764835	     12.77235587	     10.61485555	     13.05821853	    -21.21383813	     10.11194711	      0.67328151	      8.93403226	     -3.74466150	     -2.10363225	     -1.56471107
      1.98500000	    -10.69922561	      0.35484754	      3.82265503	     -0.20185425	      1.23103175	     -0.82745256	     37.69000551	      2.51731901	      0.86373026	    -32.62785629	      7.88070299	     -4.91617576	      7.74842068	     12.51072887	     10.51139925	     13.00216731	    -21.36290033	     10.45719689	      0.85661273	      9.00061404	     -3.68445410	     -2.07798830	     -1.56725849
      1.99000000	    -10.76637980	      0.29745399	      3.89407294	     -0.19642639	      1.23059956	     -0.82712975	     37.36674469	      2.49155599	      0.97822132	    -29.82001794	      7.81173152	     -5.02083867	      7.63739682	     12.23796329	     10.42099470	     12.94597329	    -21.51730240	     10.79983345	      1.07478448	      9.07256286	     -3.63340222	     -2.07675867	     -1.57099720
      1.99500000	    -10.84519917	      0.26812292	      3.95699248	     -0.19092808	      1.23007401	     -0.82675931	     37.00097145	      2.44502296	      1.11237506	    -26.97173839	      7.63503918	     -5.13149355	      7.64599808	     11.99612044	     10.35264865	     12.81444348	    -21.71799641	     11.17533749	      1.35310860	      9.12830181	     -3.55520586	     -2.10680002	     -1.52691564
      2.00000000	    -10.95619759	      0.26866120	      4.10334049	     -0.18542759	      1.22943734	     -0.82656559	     36.66862785	      2.27567856	      1.03942782	    -24.22527290	      7.46523648	     -4.92064494	      7.63951780	     11.79678242	     10.37053235	     12.86840693	    -21.94452303	     11.44367697	      1.43496160	      9.19838606	     -3.44769972	     -2.15432798	     -1.56483622
      2.00500000	    -11.04248441	      0.30572965	      4.20018848	     -0.17979216	      1.22878037	     -0.82621923	     36.28547571	      2.12541011	      1.01408850	    -21.54566626	      7.29322330	     -4.78703793	      7.75593050	     11.52866264	     10.37925365	     12.78427894	    -22.10121700	     11.74529022	      1.67833311	      9.29914909	     -3.34860933	     -2.24833675	     -1.56479408
      2.01000000	    -11.17974773	      0.34580585	      4.35666489	     -0.17419499	      1.22801575	     -0.82601579	     35.99314111	      1.91168709	      0.78959434	    -19.05475598	      7.10157737	     -4.40422687	      7.79908472	     11.36900263	     10.44122803	     12.81899682	    -22.36356132	     11.98559593	      1.77339899	      9.39289940	     -3.19472530	     -2.33319147	     -1.58058425
      2.01500000	    -11.29569396	      0.39035197	      4.50306116	     -0.16852033	      1.22727690	     -0.82578217	     35.66393229	      1.71277033	      0.51394848	    -16.67730709	      6.93002111	     -3.94481327	      7.88593421	     11.17413496	     10.49239836	     12.81896570	    -22.60975939	     12.22123665	      1.92406904	      9.51788794	     -3.05250941	     -2.42012719	     -1.58229072
